<svg xmlns="http://www.w3.org/2000/svg" width="920" height="220" viewBox="0 0 920 220" role="img" aria-label="شعار عقار أبحر">
  <defs>
    <linearGradient id="blue" x1="0" y1="0" x2="1" y2="1">
      <stop offset="0" stop-color="#2563eb"/>
      <stop offset="1" stop-color="#0ea5e9"/>
    </linearGradient>
    <linearGradient id="gold" x1="0" y1="0" x2="1" y2="1">
      <stop offset="0" stop-color="#f59e0b"/>
      <stop offset="1" stop-color="#d97706"/>
    </linearGradient>
  </defs>

  <!-- Mark (right) -->
  <g transform="translate(700 20)">
    <rect x="0" y="0" width="200" height="200" rx="64" fill="#ffffff" stroke="#e5e7eb" stroke-width="6"/>
    <path d="M18 132c28-32 58-38 92-22 36 18 58 18 92-6v64H18z" fill="url(#blue)" opacity="0.14"/>
    <path d="M22 136c30-30 60-34 90-20 38 18 62 18 92-6" fill="none" stroke="url(#blue)" stroke-width="6" stroke-linecap="round" opacity="0.65"/>

    <path d="M100 42c-32 0-58 26-58 58 0 44 38 76 58 100 20-24 58-56 58-100 0-32-26-58-58-58z" fill="url(#blue)"/>
    <circle cx="100" cy="100" r="26" fill="#ffffff" opacity="0.95"/>
    <path d="M82 114V88l18-10 18 10v26" fill="none" stroke="url(#gold)" stroke-width="6" stroke-linecap="round" stroke-linejoin="round"/>
    <path d="M90 114V102M100 114V98M110 114V102" fill="none" stroke="url(#gold)" stroke-width="6" stroke-linecap="round"/>
  </g>

  <!-- Text (left, RTL) -->
  <text x="660" y="108" text-anchor="end" font-family="system-ui,Segoe UI,Arial" font-size="72" font-weight="900" fill="#0f172a" direction="rtl" unicode-bidi="bidi-override">عقار أبحر</text>
  <text x="660" y="152" text-anchor="end" font-family="system-ui,Segoe UI,Arial" font-size="28" font-weight="700" fill="#6b7280" direction="rtl" unicode-bidi="bidi-override">عروض مباشرة • أبحر الشمالية وشمال جدة</text>
  <path d="M120 176c140 18 260 18 400 0" fill="none" stroke="url(#blue)" stroke-width="8" stroke-linecap="round" opacity="0.55"/>
</svg>
