<svg xmlns="http://www.w3.org/2000/svg" width="512" height="512" viewBox="0 0 512 512" role="img" aria-label="شعار عقار أبحر">
  <defs>
    <linearGradient id="blue" x1="0" y1="0" x2="1" y2="1">
      <stop offset="0" stop-color="#2563eb"/>
      <stop offset="1" stop-color="#0ea5e9"/>
    </linearGradient>
    <linearGradient id="gold" x1="0" y1="0" x2="1" y2="1">
      <stop offset="0" stop-color="#f59e0b"/>
      <stop offset="1" stop-color="#d97706"/>
    </linearGradient>
    <filter id="shadow" x="-20%" y="-20%" width="140%" height="140%">
      <feDropShadow dx="0" dy="12" stdDeviation="14" flood-color="#0f172a" flood-opacity="0.12"/>
    </filter>
  </defs>

  <rect x="44" y="44" width="424" height="424" rx="120" fill="#ffffff" stroke="#e5e7eb" stroke-width="10"/>

  <!-- Wave background -->
  <path d="M84 322c54-60 110-70 172-40 66 32 106 34 172-8v136H84z" fill="url(#blue)" opacity="0.14"/>
  <path d="M92 332c56-56 112-64 170-36 70 34 112 34 174-10" fill="none" stroke="url(#blue)" stroke-width="10" stroke-linecap="round" opacity="0.65"/>

  <!-- Pin + building -->
  <g filter="url(#shadow)">
    <path d="M256 130c-54 0-98 44-98 98 0 75 66 128 98 168 32-40 98-93 98-168 0-54-44-98-98-98z" fill="url(#blue)"/>
    <circle cx="256" cy="228" r="46" fill="#ffffff" opacity="0.95"/>
    <path d="M224 252v-46l32-18 32 18v46" fill="none" stroke="url(#gold)" stroke-width="10" stroke-linecap="round" stroke-linejoin="round"/>
    <path d="M238 250v-22M256 250v-26M274 250v-22" fill="none" stroke="url(#gold)" stroke-width="10" stroke-linecap="round"/>
  </g>

  <!-- Text -->
  <text x="256" y="412" text-anchor="middle" font-family="system-ui,Segoe UI,Arial" font-size="54" font-weight="900" fill="#0f172a" direction="rtl" unicode-bidi="bidi-override">أبحر</text>
  <text x="256" y="454" text-anchor="middle" font-family="system-ui,Segoe UI,Arial" font-size="28" font-weight="800" fill="#6b7280" direction="rtl" unicode-bidi="bidi-override">عقار</text>
</svg>
